<mxfile host="Electron" agent="Mozilla/5.0 (Windows NT 10.0; Win64; x64) AppleWebKit/537.36 (KHTML, like Gecko) draw.io/28.0.6 Chrome/138.0.7204.100 Electron/37.2.3 Safari/537.36" version="28.0.6">
  <diagram name="Page-1" id="BEp2Egwldt-Rr_bHbI3l">
    <mxGraphModel dx="2066" dy="1201" grid="1" gridSize="10" guides="1" tooltips="1" connect="1" arrows="1" fold="1" page="1" pageScale="1" pageWidth="827" pageHeight="1169" math="0" shadow="0">
      <root>
        <mxCell id="0" />
        <mxCell id="1" parent="0" />
        <mxCell id="Euo3OZfdb7B1Ajilk_4Q-1" value="Sticky Notes app - View" style="swimlane;whiteSpace=wrap;html=1;" vertex="1" parent="1">
          <mxGeometry x="770" y="60" width="210" height="1020" as="geometry" />
        </mxCell>
        <mxCell id="Euo3OZfdb7B1Ajilk_4Q-12" value="" style="rounded=0;whiteSpace=wrap;html=1;fillColor=#1ba1e2;fontColor=#ffffff;strokeColor=#006EAF;" vertex="1" parent="Euo3OZfdb7B1Ajilk_4Q-1">
          <mxGeometry x="57" y="50" width="70" height="110" as="geometry" />
        </mxCell>
        <mxCell id="Euo3OZfdb7B1Ajilk_4Q-21" value="" style="rounded=0;whiteSpace=wrap;html=1;fillColor=#1ba1e2;fontColor=#ffffff;strokeColor=#006EAF;" vertex="1" parent="Euo3OZfdb7B1Ajilk_4Q-1">
          <mxGeometry x="-320" y="180" width="70" height="130" as="geometry" />
        </mxCell>
        <mxCell id="Euo3OZfdb7B1Ajilk_4Q-22" value="" style="endArrow=classic;html=1;rounded=0;strokeWidth=3;fillColor=#e51400;strokeColor=#B20000;" edge="1" parent="Euo3OZfdb7B1Ajilk_4Q-1">
          <mxGeometry width="50" height="50" relative="1" as="geometry">
            <mxPoint x="-250" y="210" as="sourcePoint" />
            <mxPoint x="5" y="210" as="targetPoint" />
          </mxGeometry>
        </mxCell>
        <mxCell id="Euo3OZfdb7B1Ajilk_4Q-23" value="Edit note" style="edgeLabel;html=1;align=center;verticalAlign=middle;resizable=0;points=[];" vertex="1" connectable="0" parent="Euo3OZfdb7B1Ajilk_4Q-22">
          <mxGeometry x="0.1608" y="-3" relative="1" as="geometry">
            <mxPoint as="offset" />
          </mxGeometry>
        </mxCell>
        <mxCell id="Euo3OZfdb7B1Ajilk_4Q-24" value="" style="endArrow=classic;html=1;rounded=0;strokeWidth=3;fillColor=#e51400;strokeColor=#B20000;" edge="1" parent="Euo3OZfdb7B1Ajilk_4Q-1">
          <mxGeometry width="50" height="50" relative="1" as="geometry">
            <mxPoint x="62" y="280" as="sourcePoint" />
            <mxPoint x="-245" y="280" as="targetPoint" />
          </mxGeometry>
        </mxCell>
        <mxCell id="Euo3OZfdb7B1Ajilk_4Q-25" value="Display confirmation" style="edgeLabel;html=1;align=center;verticalAlign=middle;resizable=0;points=[];" vertex="1" connectable="0" parent="Euo3OZfdb7B1Ajilk_4Q-24">
          <mxGeometry x="0.1608" y="-3" relative="1" as="geometry">
            <mxPoint as="offset" />
          </mxGeometry>
        </mxCell>
        <mxCell id="Euo3OZfdb7B1Ajilk_4Q-26" value="" style="rounded=0;whiteSpace=wrap;html=1;fillColor=#1ba1e2;fontColor=#ffffff;strokeColor=#006EAF;" vertex="1" parent="Euo3OZfdb7B1Ajilk_4Q-1">
          <mxGeometry x="62" y="190" width="70" height="110" as="geometry" />
        </mxCell>
        <mxCell id="Euo3OZfdb7B1Ajilk_4Q-27" value="" style="endArrow=classic;html=1;rounded=0;strokeWidth=3;fillColor=#e51400;strokeColor=#B20000;entryX=0;entryY=0.25;entryDx=0;entryDy=0;" edge="1" target="Euo3OZfdb7B1Ajilk_4Q-31" parent="Euo3OZfdb7B1Ajilk_4Q-1">
          <mxGeometry width="50" height="50" relative="1" as="geometry">
            <mxPoint x="135" y="230" as="sourcePoint" />
            <mxPoint x="390" y="230" as="targetPoint" />
          </mxGeometry>
        </mxCell>
        <mxCell id="Euo3OZfdb7B1Ajilk_4Q-28" value="Update and save" style="edgeLabel;html=1;align=center;verticalAlign=middle;resizable=0;points=[];" vertex="1" connectable="0" parent="Euo3OZfdb7B1Ajilk_4Q-27">
          <mxGeometry x="0.1608" y="-3" relative="1" as="geometry">
            <mxPoint as="offset" />
          </mxGeometry>
        </mxCell>
        <mxCell id="Euo3OZfdb7B1Ajilk_4Q-33" value="" style="rounded=0;whiteSpace=wrap;html=1;fillColor=#1ba1e2;fontColor=#ffffff;strokeColor=#006EAF;" vertex="1" parent="Euo3OZfdb7B1Ajilk_4Q-1">
          <mxGeometry x="-320" y="320" width="70" height="130" as="geometry" />
        </mxCell>
        <mxCell id="Euo3OZfdb7B1Ajilk_4Q-34" value="" style="endArrow=classic;html=1;rounded=0;strokeWidth=3;fillColor=#e51400;strokeColor=#B20000;" edge="1" parent="Euo3OZfdb7B1Ajilk_4Q-1">
          <mxGeometry width="50" height="50" relative="1" as="geometry">
            <mxPoint x="-250" y="350" as="sourcePoint" />
            <mxPoint x="5" y="350" as="targetPoint" />
          </mxGeometry>
        </mxCell>
        <mxCell id="Euo3OZfdb7B1Ajilk_4Q-44" value="DeleteNote" style="edgeLabel;html=1;align=center;verticalAlign=middle;resizable=0;points=[];" vertex="1" connectable="0" parent="Euo3OZfdb7B1Ajilk_4Q-34">
          <mxGeometry x="0.0667" relative="1" as="geometry">
            <mxPoint x="4" as="offset" />
          </mxGeometry>
        </mxCell>
        <mxCell id="Euo3OZfdb7B1Ajilk_4Q-36" value="" style="endArrow=classic;html=1;rounded=0;strokeWidth=3;fillColor=#e51400;strokeColor=#B20000;" edge="1" parent="Euo3OZfdb7B1Ajilk_4Q-1">
          <mxGeometry width="50" height="50" relative="1" as="geometry">
            <mxPoint x="62" y="420" as="sourcePoint" />
            <mxPoint x="-245" y="420" as="targetPoint" />
          </mxGeometry>
        </mxCell>
        <mxCell id="Euo3OZfdb7B1Ajilk_4Q-37" value="Display confirmation" style="edgeLabel;html=1;align=center;verticalAlign=middle;resizable=0;points=[];" vertex="1" connectable="0" parent="Euo3OZfdb7B1Ajilk_4Q-36">
          <mxGeometry x="0.1608" y="-3" relative="1" as="geometry">
            <mxPoint as="offset" />
          </mxGeometry>
        </mxCell>
        <mxCell id="Euo3OZfdb7B1Ajilk_4Q-38" value="" style="rounded=0;whiteSpace=wrap;html=1;fillColor=#1ba1e2;fontColor=#ffffff;strokeColor=#006EAF;" vertex="1" parent="Euo3OZfdb7B1Ajilk_4Q-1">
          <mxGeometry x="62" y="330" width="70" height="110" as="geometry" />
        </mxCell>
        <mxCell id="Euo3OZfdb7B1Ajilk_4Q-39" value="" style="endArrow=classic;html=1;rounded=0;strokeWidth=3;fillColor=#e51400;strokeColor=#B20000;entryX=0;entryY=0.25;entryDx=0;entryDy=0;" edge="1" target="Euo3OZfdb7B1Ajilk_4Q-43" parent="Euo3OZfdb7B1Ajilk_4Q-1">
          <mxGeometry width="50" height="50" relative="1" as="geometry">
            <mxPoint x="135" y="370" as="sourcePoint" />
            <mxPoint x="390" y="370" as="targetPoint" />
          </mxGeometry>
        </mxCell>
        <mxCell id="Euo3OZfdb7B1Ajilk_4Q-40" value="Update and save" style="edgeLabel;html=1;align=center;verticalAlign=middle;resizable=0;points=[];" vertex="1" connectable="0" parent="Euo3OZfdb7B1Ajilk_4Q-39">
          <mxGeometry x="0.1608" y="-3" relative="1" as="geometry">
            <mxPoint as="offset" />
          </mxGeometry>
        </mxCell>
        <mxCell id="Euo3OZfdb7B1Ajilk_4Q-2" value="Storage - Database" style="swimlane;whiteSpace=wrap;html=1;" vertex="1" parent="1">
          <mxGeometry x="1200" y="60" width="200" height="1020" as="geometry" />
        </mxCell>
        <mxCell id="Euo3OZfdb7B1Ajilk_4Q-31" value="" style="rounded=0;whiteSpace=wrap;html=1;fillColor=#1ba1e2;fontColor=#ffffff;strokeColor=#006EAF;" vertex="1" parent="Euo3OZfdb7B1Ajilk_4Q-2">
          <mxGeometry x="65" y="210" width="70" height="70" as="geometry" />
        </mxCell>
        <mxCell id="Euo3OZfdb7B1Ajilk_4Q-13" value="" style="rounded=0;whiteSpace=wrap;html=1;fillColor=#1ba1e2;fontColor=#ffffff;strokeColor=#006EAF;" vertex="1" parent="Euo3OZfdb7B1Ajilk_4Q-2">
          <mxGeometry x="65" y="70" width="70" height="70" as="geometry" />
        </mxCell>
        <mxCell id="Euo3OZfdb7B1Ajilk_4Q-43" value="" style="rounded=0;whiteSpace=wrap;html=1;fillColor=#1ba1e2;fontColor=#ffffff;strokeColor=#006EAF;" vertex="1" parent="Euo3OZfdb7B1Ajilk_4Q-2">
          <mxGeometry x="65" y="350" width="70" height="70" as="geometry" />
        </mxCell>
        <mxCell id="Euo3OZfdb7B1Ajilk_4Q-3" value="Templates" style="swimlane;whiteSpace=wrap;html=1;" vertex="1" parent="1">
          <mxGeometry x="380" y="60" width="200" height="1020" as="geometry" />
        </mxCell>
        <mxCell id="Euo3OZfdb7B1Ajilk_4Q-10" value="" style="rounded=0;whiteSpace=wrap;html=1;fillColor=#1ba1e2;fontColor=#ffffff;strokeColor=#006EAF;" vertex="1" parent="Euo3OZfdb7B1Ajilk_4Q-3">
          <mxGeometry x="65" y="40" width="70" height="130" as="geometry" />
        </mxCell>
        <mxCell id="Euo3OZfdb7B1Ajilk_4Q-5" value="Users&lt;div&gt;&lt;br&gt;&lt;/div&gt;" style="shape=umlActor;verticalLabelPosition=bottom;verticalAlign=top;html=1;outlineConnect=0;" vertex="1" parent="1">
          <mxGeometry x="90" y="360" width="100" height="180" as="geometry" />
        </mxCell>
        <mxCell id="Euo3OZfdb7B1Ajilk_4Q-6" value="Admin" style="shape=umlActor;verticalLabelPosition=bottom;verticalAlign=top;html=1;outlineConnect=0;" vertex="1" parent="1">
          <mxGeometry x="90" y="620" width="100" height="180" as="geometry" />
        </mxCell>
        <mxCell id="Euo3OZfdb7B1Ajilk_4Q-8" value="" style="endArrow=classic;html=1;rounded=0;" edge="1" parent="1">
          <mxGeometry width="50" height="50" relative="1" as="geometry">
            <mxPoint x="190" y="730" as="sourcePoint" />
            <mxPoint x="380" y="730" as="targetPoint" />
          </mxGeometry>
        </mxCell>
        <mxCell id="Euo3OZfdb7B1Ajilk_4Q-9" value="" style="endArrow=classic;html=1;rounded=0;" edge="1" parent="1">
          <mxGeometry width="50" height="50" relative="1" as="geometry">
            <mxPoint x="200" y="440" as="sourcePoint" />
            <mxPoint x="380" y="440" as="targetPoint" />
          </mxGeometry>
        </mxCell>
        <mxCell id="Euo3OZfdb7B1Ajilk_4Q-11" value="" style="endArrow=classic;html=1;rounded=0;strokeWidth=3;fillColor=#e51400;strokeColor=#B20000;" edge="1" parent="1">
          <mxGeometry width="50" height="50" relative="1" as="geometry">
            <mxPoint x="515" y="130" as="sourcePoint" />
            <mxPoint x="770" y="130" as="targetPoint" />
          </mxGeometry>
        </mxCell>
        <mxCell id="Euo3OZfdb7B1Ajilk_4Q-14" value="Add Note" style="edgeLabel;html=1;align=center;verticalAlign=middle;resizable=0;points=[];" vertex="1" connectable="0" parent="Euo3OZfdb7B1Ajilk_4Q-11">
          <mxGeometry x="0.1608" y="-3" relative="1" as="geometry">
            <mxPoint as="offset" />
          </mxGeometry>
        </mxCell>
        <mxCell id="Euo3OZfdb7B1Ajilk_4Q-15" value="" style="endArrow=classic;html=1;rounded=0;strokeWidth=3;fillColor=#e51400;strokeColor=#B20000;entryX=0;entryY=0.25;entryDx=0;entryDy=0;" edge="1" parent="1" target="Euo3OZfdb7B1Ajilk_4Q-13">
          <mxGeometry width="50" height="50" relative="1" as="geometry">
            <mxPoint x="900" y="150" as="sourcePoint" />
            <mxPoint x="1155" y="150" as="targetPoint" />
          </mxGeometry>
        </mxCell>
        <mxCell id="Euo3OZfdb7B1Ajilk_4Q-16" value="Validate and save" style="edgeLabel;html=1;align=center;verticalAlign=middle;resizable=0;points=[];" vertex="1" connectable="0" parent="Euo3OZfdb7B1Ajilk_4Q-15">
          <mxGeometry x="0.1608" y="-3" relative="1" as="geometry">
            <mxPoint as="offset" />
          </mxGeometry>
        </mxCell>
        <mxCell id="Euo3OZfdb7B1Ajilk_4Q-17" value="" style="endArrow=classic;html=1;rounded=0;strokeWidth=3;fillColor=#e51400;strokeColor=#B20000;" edge="1" parent="1">
          <mxGeometry width="50" height="50" relative="1" as="geometry">
            <mxPoint x="1340" y="152" as="sourcePoint" />
            <mxPoint x="980" y="190" as="targetPoint" />
            <Array as="points">
              <mxPoint x="1490" y="152" />
              <mxPoint x="1490" y="190" />
            </Array>
          </mxGeometry>
        </mxCell>
        <mxCell id="Euo3OZfdb7B1Ajilk_4Q-18" value="Acknowlage" style="edgeLabel;html=1;align=center;verticalAlign=middle;resizable=0;points=[];" vertex="1" connectable="0" parent="Euo3OZfdb7B1Ajilk_4Q-17">
          <mxGeometry x="0.1608" y="-3" relative="1" as="geometry">
            <mxPoint as="offset" />
          </mxGeometry>
        </mxCell>
        <mxCell id="Euo3OZfdb7B1Ajilk_4Q-19" value="" style="endArrow=classic;html=1;rounded=0;strokeWidth=3;fillColor=#e51400;strokeColor=#B20000;" edge="1" parent="1">
          <mxGeometry width="50" height="50" relative="1" as="geometry">
            <mxPoint x="827" y="200" as="sourcePoint" />
            <mxPoint x="520" y="200" as="targetPoint" />
          </mxGeometry>
        </mxCell>
        <mxCell id="Euo3OZfdb7B1Ajilk_4Q-20" value="Display confirmation" style="edgeLabel;html=1;align=center;verticalAlign=middle;resizable=0;points=[];" vertex="1" connectable="0" parent="Euo3OZfdb7B1Ajilk_4Q-19">
          <mxGeometry x="0.1608" y="-3" relative="1" as="geometry">
            <mxPoint as="offset" />
          </mxGeometry>
        </mxCell>
        <mxCell id="Euo3OZfdb7B1Ajilk_4Q-29" value="" style="endArrow=classic;html=1;rounded=0;strokeWidth=3;fillColor=#e51400;strokeColor=#B20000;exitX=0.971;exitY=0.414;exitDx=0;exitDy=0;exitPerimeter=0;" edge="1" parent="1" source="Euo3OZfdb7B1Ajilk_4Q-31">
          <mxGeometry width="50" height="50" relative="1" as="geometry">
            <mxPoint x="1340" y="300" as="sourcePoint" />
            <mxPoint x="980" y="338" as="targetPoint" />
            <Array as="points">
              <mxPoint x="1490" y="300" />
              <mxPoint x="1490" y="338" />
            </Array>
          </mxGeometry>
        </mxCell>
        <mxCell id="Euo3OZfdb7B1Ajilk_4Q-32" value="Acknowlage" style="edgeLabel;html=1;align=center;verticalAlign=middle;resizable=0;points=[];" vertex="1" connectable="0" parent="Euo3OZfdb7B1Ajilk_4Q-29">
          <mxGeometry x="0.596" relative="1" as="geometry">
            <mxPoint as="offset" />
          </mxGeometry>
        </mxCell>
        <mxCell id="Euo3OZfdb7B1Ajilk_4Q-41" value="" style="endArrow=classic;html=1;rounded=0;strokeWidth=3;fillColor=#e51400;strokeColor=#B20000;exitX=0.971;exitY=0.414;exitDx=0;exitDy=0;exitPerimeter=0;" edge="1" source="Euo3OZfdb7B1Ajilk_4Q-43" parent="1">
          <mxGeometry width="50" height="50" relative="1" as="geometry">
            <mxPoint x="1340" y="440" as="sourcePoint" />
            <mxPoint x="980" y="478" as="targetPoint" />
            <Array as="points">
              <mxPoint x="1490" y="440" />
              <mxPoint x="1490" y="478" />
            </Array>
          </mxGeometry>
        </mxCell>
        <mxCell id="Euo3OZfdb7B1Ajilk_4Q-42" value="Acknowlage" style="edgeLabel;html=1;align=center;verticalAlign=middle;resizable=0;points=[];" vertex="1" connectable="0" parent="Euo3OZfdb7B1Ajilk_4Q-41">
          <mxGeometry x="0.596" relative="1" as="geometry">
            <mxPoint as="offset" />
          </mxGeometry>
        </mxCell>
      </root>
    </mxGraphModel>
  </diagram>
</mxfile>
